<?xml version="1.0" encoding="utf-8"?>
<!-- Generator: Adobe Illustrator 25.4.1, SVG Export Plug-In . SVG Version: 6.00 Build 0)  -->
<svg version="1.1" id="Layer_1" xmlns="http://www.w3.org/2000/svg" xmlns:xlink="http://www.w3.org/1999/xlink" x="0px" y="0px"
	 viewBox="0 0 1000 800" style="enable-background:new 0 0 1000 800;" xml:space="preserve">
<style type="text/css">
	.st0{fill:#FFFFFF;}
	.st1{fill:none;stroke:#A3D8D4;stroke-width:7.757;}
	.st2{fill:none;stroke:#A3D8D4;stroke-width:8.3735;}
	.st3{fill:none;stroke:#A3D8D4;stroke-width:17.36;}
	.st4{fill:none;stroke:#A3D8D4;stroke-width:10.5656;}
	.st5{fill:none;stroke:#A3D8D4;stroke-width:6.4755;}
	.st6{fill:none;stroke:#A3D8D4;stroke-width:6.7897;}
	.st7{fill:none;stroke:#A3D8D4;stroke-width:7.2056;}
	.st8{fill:none;stroke:#A3D8D4;stroke-width:10.209;}
	.st9{fill:none;stroke:#A3D8D4;stroke-width:21.1855;}
	.st10{fill:none;stroke:#A3D8D4;stroke-width:6.1352;}
	.st11{fill:none;stroke:#A3D8D4;stroke-width:7.6046;}
	.st12{fill:none;stroke:#A3D8D4;stroke-width:6.6672;}
	.st13{fill:none;stroke:#A3D8D4;stroke-width:14.9628;}
	.st14{fill:none;stroke:#A3D8D4;stroke-width:29.0648;}
	.st15{fill:none;stroke:#A3D8D4;stroke-width:15.1189;}
	.st16{fill:none;stroke:#A3D8D4;stroke-width:26.3646;}
	.st17{fill:none;stroke:#A3D8D4;stroke-width:7.09;}
	.st18{fill:none;stroke:#A3D8D4;stroke-width:6.4814;}
	.st19{fill:none;stroke:#A3D8D4;stroke-width:21.6507;}
	.st20{fill:none;stroke:#A3D8D4;stroke-width:7.2698;}
	.st21{fill:none;stroke:#A3D8D4;stroke-width:9.1223;}
	.st22{fill:none;stroke:#A3D8D4;stroke-width:7.9059;}
	.st23{fill:none;stroke:#A3D8D4;stroke-width:8.3762;}
	.st24{fill:none;stroke:#A3D8D4;stroke-width:6.9422;}
	.st25{fill:none;stroke:#A3D8D4;stroke-width:4.5448;}
	.st26{fill:none;stroke:#A3D8D4;stroke-width:11.6767;}
	.st27{fill:none;stroke:#A3D8D4;stroke-width:8.8832;}
	.st28{fill:none;stroke:#A3D8D4;stroke-width:9.5295;}
	.st29{fill:none;stroke:#A3D8D4;stroke-width:5.9567;}
	.st30{fill:none;stroke:#A3D8D4;stroke-width:12.7423;}
	.st31{fill:none;stroke:#A3D8D4;stroke-width:6.9159;}
	.st32{fill:none;stroke:#A3D8D4;stroke-width:7.0995;}
	.st33{fill:none;stroke:#A3D8D4;stroke-width:40.821;}
	.st34{fill:none;stroke:#A3D8D4;stroke-width:37.4813;}
	.st35{fill:none;stroke:#A3D8D4;stroke-width:10.5056;}
	.st36{fill:none;stroke:#A3D8D4;stroke-width:7.3316;}
	.st37{fill:none;stroke:#A3D8D4;stroke-width:16.5476;}
	.st38{fill:none;stroke:#A3D8D4;stroke-width:11.3423;}
	.st39{fill:none;stroke:#A3D8D4;stroke-width:5.2281;}
	.st40{fill:none;stroke:#A3D8D4;stroke-width:5.8081;}
	.st41{fill:none;stroke:#A3D8D4;stroke-width:5.3343;}
	.st42{fill:none;stroke:#A3D8D4;stroke-width:10.5735;}
	.st43{fill:none;stroke:#F3E86F;stroke-width:16.1305;}
	.st44{fill:none;stroke:#F7B452;stroke-width:34.401;}
	.st45{fill:none;stroke:#CE7C89;stroke-width:13.9953;}
	.st46{fill:none;stroke:#9BEAA1;stroke-width:110.948;}
	.st47{fill:none;stroke:#F3E86F;stroke-width:33.4546;}
	.st48{fill:none;stroke:#EAA532;stroke-width:6.4814;}
	.st49{fill:none;stroke:#CE7C89;stroke-width:128.6158;}
	.st50{fill:none;stroke:#9BEAA1;stroke-width:88.808;}
	.st51{fill:none;stroke:#F3E86F;stroke-width:35.2215;}
	.st52{fill:none;stroke:#F7B452;stroke-width:26.944;}
	.st53{fill:none;stroke:#9BEAA1;stroke-width:16.1305;}
	.st54{fill:none;stroke:#9BEAA1;stroke-width:41.1907;}
	.st55{fill:none;stroke:#9BEAA1;stroke-width:7.2056;}
	.st56{fill:none;stroke:#F3E86F;stroke-width:110.948;}
	.st57{fill:none;stroke:#F3E86F;stroke-width:6.4814;}
	.st58{fill:none;stroke:#F3E86F;stroke-width:128.6158;}
	.st59{fill:none;stroke:#CE7C89;stroke-width:79.1073;}
	.st60{fill:none;stroke:#CE7C89;stroke-width:47.9869;}
	.st61{fill:none;stroke:#CE7C89;stroke-width:23.8792;}
	.st62{font-family:'Arial-BoldMT';}
	.st63{font-size:10px;}
	.st64{fill:#7B7B7B;}
	.st65{font-size:12px;}
</style>
<rect id="backgorund" y="0" class="st0" width="1000" height="800"/>
<g>
	<rect x="348.3" y="145" width="5" height="199.8"/>
	<rect x="945" y="145" width="5" height="127.1"/>
	<rect x="646.7" y="147.5" width="5" height="64.5"/>
	<rect x="646.7" y="217" width="5" height="279.5"/>
	<rect x="348.3" y="349.8" width="5" height="84.8"/>
	<rect x="945" y="277.1" width="5" height="122.6"/>
	<rect x="646.7" y="501.5" width="5" height="151"/>
	<rect x="348.3" y="439.6" width="5" height="67.8"/>
	<rect x="945" y="404.7" width="5" height="37.6"/>
	<rect x="348.3" y="512.4" width="5" height="142.6"/>
	<rect x="945" y="447.3" width="5" height="207.7"/>
	<rect x="50" y="50" width="5" height="6.9"/>
	<rect x="50" y="61.9" width="5" height="5.8"/>
	<rect x="50" y="72.8" width="5" height="9.5"/>
	<rect x="50" y="87.3" width="5" height="10.5"/>
	<rect x="50" y="102.8" width="5" height="9.1"/>
	<rect x="50" y="116.9" width="5" height="11.7"/>
	<rect x="50" y="133.6" width="5" height="10.6"/>
	<rect x="50" y="149.2" width="5" height="7.1"/>
	<rect x="50" y="161.2" width="5" height="7.2"/>
	<rect x="50" y="173.4" width="5" height="6.5"/>
	<rect x="50" y="184.9" width="5" height="26.4"/>
	<rect x="50" y="216.3" width="5" height="8.4"/>
	<rect x="50" y="229.7" width="5" height="12.7"/>
	<rect x="50" y="247.4" width="5" height="6.7"/>
	<rect x="50" y="259.1" width="5" height="7.3"/>
	<rect x="50" y="271.4" width="5" height="21.2"/>
	<rect x="50" y="297.6" width="5" height="7.6"/>
	<rect x="50" y="310.2" width="5" height="7.1"/>
	<rect x="50" y="322.3" width="5" height="6.9"/>
	<rect x="50" y="334.2" width="5" height="8.4"/>
	<rect x="50" y="347.6" width="5" height="37.5"/>
	<rect x="50" y="390.1" width="5" height="8.9"/>
	<rect x="50" y="403.9" width="5" height="4.5"/>
	<rect x="50" y="413.5" width="5" height="5.2"/>
	<rect x="50" y="423.7" width="5" height="7.3"/>
	<rect x="50" y="436" width="5" height="6.5"/>
	<rect x="50" y="447.5" width="5" height="17.4"/>
	<rect x="50" y="469.8" width="5" height="10.2"/>
	<rect x="50" y="485" width="5" height="16.5"/>
	<rect x="50" y="506.6" width="5" height="40.8"/>
	<rect x="50" y="552.4" width="5" height="15.1"/>
	<rect x="50" y="572.5" width="5" height="7.9"/>
	<rect x="50" y="585.4" width="5" height="11.3"/>
	<rect x="50" y="601.8" width="5" height="10.6"/>
	<rect x="50" y="617.3" width="5" height="21.7"/>
	<rect x="50" y="644" width="5" height="6.8"/>
	<rect x="50" y="655.8" width="5" height="7.8"/>
	<rect x="50" y="668.5" width="5" height="6"/>
	<rect x="50" y="679.5" width="5" height="29.1"/>
	<rect x="50" y="713.6" width="5" height="5.3"/>
	<rect x="50" y="723.9" width="5" height="6.1"/>
	<rect x="50" y="735" width="5" height="15"/>
</g>
<g>
	<path class="st1" d="M55,659.7c146.7,0,146.7-229,293.3-229"/>
</g>
<g>
	<path class="st2" d="M55,338.4c146.7,0,146.7,56.3,293.3,56.3"/>
</g>
<g>
	<path class="st3" d="M55,456.2c146.7,0,146.7,26.7,293.3,26.7"/>
</g>
<g>
	<path class="st4" d="M55,138.9c146.7,0,146.7,311.8,293.3,311.8"/>
</g>
<g>
	<path class="st5" d="M55,176.7c146.7,0,146.7,282.5,293.3,282.5"/>
</g>
<g>
	<path class="st6" d="M55,647.4c146.7,0,146.7-1.7,293.3-1.7"/>
</g>
<g>
	<path class="st7" d="M55,164.8c146.7,0,146.7,388.4,293.3,388.4"/>
</g>
<g>
	<path class="st8" d="M55,474.9c146.7,0,146.7-241.4,293.3-241.4"/>
</g>
<g>
	<path class="st9" d="M55,282c146.7,0,146.7-109.2,293.3-109.2"/>
</g>
<g>
	<path class="st10" d="M55,727c146.7,0,146.7-400.2,293.3-400.2"/>
</g>
<g>
	<path class="st11" d="M55,301.4c146.7,0,146.7-114.2,293.3-114.2"/>
</g>
<g>
	<path class="st12" d="M55,250.7c146.7,0,146.7-91.9,293.3-91.9"/>
</g>
<g>
	<path class="st13" d="M55,742.5c146.7,0,146.7-405.2,293.3-405.2"/>
</g>
<g>
	<path class="st14" d="M55,694c146.7,0,146.7-384.9,293.3-384.9"/>
</g>
<g>
	<path class="st15" d="M55,560C201.7,560,201.7,287,348.3,287"/>
</g>
<g>
	<path class="st16" d="M55,198.1c146.7,0,146.7,171.9,293.3,171.9"/>
</g>
<g>
	<path class="st17" d="M55,152.7c146.7,0,146.7,200.6,293.3,200.6"/>
</g>
<g>
	<path class="st18" d="M55,439.2c146.7,0,146.7,31.7,293.3,31.7"/>
</g>
<g>
	<path class="st19" d="M55,628.2c146.7,0,146.7,3.3,293.3,3.3"/>
</g>
<g>
	<path class="st20" d="M55,427.4c146.7,0,146.7,181.7,293.3,181.7"/>
</g>
<g>
	<path class="st21" d="M55,107.3c146.7,0,146.7,426.1,293.3,426.1"/>
</g>
<g>
	<path class="st22" d="M55,576.5c146.7,0,146.7,40.2,293.3,40.2"/>
</g>
<g>
	<path class="st23" d="M55,220.5c146.7,0,146.7,340.6,293.3,340.6"/>
</g>
<g>
	<path class="st24" d="M55,53.5c146.7,0,146.7,462.4,293.3,462.4"/>
</g>
<g>
	<path class="st25" d="M55,406.2c146.7,0,146.7,196.9,293.3,196.9"/>
</g>
<g>
	<path class="st26" d="M55,122.7c146.7,0,146.7,421.1,293.3,421.1"/>
</g>
<g>
	<path class="st27" d="M55,394.5c146.7,0,146.7,201.9,293.3,201.9"/>
</g>
<g>
	<path class="st28" d="M55,77.5c146.7,0,146.7,446.6,293.3,446.6"/>
</g>
<g>
	<path class="st29" d="M55,671.5c146.7,0,146.7-19.5,293.3-19.5"/>
</g>
<g>
	<path class="st30" d="M55,236c146.7,0,146.7,335.6,293.3,335.6"/>
</g>
<g>
	<path class="st31" d="M55,325.8c146.7,0,146.7,262.8,293.3,262.8"/>
</g>
<g>
	<path class="st32" d="M55,313.7c146.7,0,146.7,267.8,293.3,267.8"/>
</g>
<g>
	<path class="st33" d="M55,527c146.7,0,146.7-267.9,293.3-267.9"/>
</g>
<g>
	<path class="st34" d="M55,366.3c146.7,0,146.7-156.6,293.3-156.6"/>
</g>
<g>
	<path class="st35" d="M55,92.5c146.7,0,146.7,57.7,293.3,57.7"/>
</g>
<g>
	<path class="st36" d="M55,262.7c146.7,0,146.7,124.1,293.3,124.1"/>
</g>
<g>
	<path class="st37" d="M55,493.3c146.7,0,146.7-86.1,293.3-86.1"/>
</g>
<g>
	<path class="st38" d="M55,591.1c146.7,0,146.7-170,293.3-170"/>
</g>
<g>
	<path class="st39" d="M55,416.1c146.7,0,146.7,48.9,293.3,48.9"/>
</g>
<g>
	<path class="st40" d="M55,64.8c146.7,0,146.7,377.6,293.3,377.6"/>
</g>
<g>
	<path class="st41" d="M55,716.2c146.7,0,146.7-211.5,293.3-211.5"/>
</g>
<g>
	<path class="st42" d="M55,607.1c146.7,0,146.7-110.3,293.3-110.3"/>
</g>
<g>
	<path class="st43" d="M353.3,357.8c146.7,0,146.7-202.3,293.3-202.3"/>
</g>
<g>
	<path class="st44" d="M353.3,456.8c146.7,0,146.7-275.9,293.3-275.9"/>
</g>
<g>
	<path class="st45" d="M353.3,519.4C500,519.4,500,205,646.7,205"/>
</g>
<g>
	<path class="st46" d="M353.3,200.5c146.7,0,146.7,72,293.3,72"/>
</g>
<g>
	<path class="st47" d="M353.3,382.6c146.7,0,146.7-37.9,293.3-37.9"/>
</g>
<g>
	<path class="st48" d="M353.3,477.2c146.7,0,146.7-112.5,293.3-112.5"/>
</g>
<g>
	<path class="st49" d="M353.3,590.7c146.7,0,146.7-158.5,293.3-158.5"/>
</g>
<g>
	<path class="st50" d="M353.3,300.4c146.7,0,146.7,245.6,293.3,245.6"/>
</g>
<g>
	<path class="st51" d="M353.3,417c146.7,0,146.7,191,293.3,191"/>
</g>
<g>
	<path class="st52" d="M353.3,493.9C500,493.9,500,639,646.7,639"/>
</g>
<g>
	<path class="st53" d="M651.7,155.6c146.7,0,146.7-2.5,293.3-2.5"/>
</g>
<g>
	<path class="st54" d="M651.7,184.2c146.7,0,146.7,113.4,293.3,113.4"/>
</g>
<g>
	<path class="st55" d="M651.7,208.4c146.7,0,146.7,199.9,293.3,199.9"/>
</g>
<g>
	<path class="st56" d="M651.7,272.5c146.7,0,146.7-55.9,293.3-55.9"/>
</g>
<g>
	<path class="st47" d="M651.7,344.7c146.7,0,146.7-9.7,293.3-9.7"/>
</g>
<g>
	<path class="st57" d="M651.7,364.7c146.7,0,146.7,50.5,293.3,50.5"/>
</g>
<g>
	<path class="st58" d="M651.7,432.2c146.7,0,146.7,79.4,293.3,79.4"/>
</g>
<g>
	<path class="st59" d="M651.7,612.9c146.7,0,146.7,2.5,293.3,2.5"/>
</g>
<g>
	<path class="st60" d="M651.7,525.5c146.7,0,146.7-149.8,293.3-149.8"/>
</g>
<g>
	<path class="st61" d="M651.7,561.5c146.7,0,146.7-131.1,293.3-131.1"/>
</g>
<text transform="matrix(1 0 0 1 357.3333 244.359)" class="st62 st63">1 ALTO</text>
<text transform="matrix(1 0 0 1 908.5897 208.0203)" class="st62 st63">1 ALTO</text>
<text transform="matrix(1 0 0 1 567.0954 179.2444)" class="st62 st63">1 SUBEN NIVEL</text>
<text transform="matrix(1 0 0 1 542.6569 356.2577)" class="st62 st63">2 MANTIENEN NIVEL</text>
<text transform="matrix(1 0 0 1 357.3333 391.6403)" class="st62 st63">2 MEDIO ALTO</text>
<text transform="matrix(1 0 0 1 869.9204 337.8756)" class="st62 st63">2 MEDIO ALTO</text>
<text transform="matrix(1 0 0 1 567.652 576.4943)" class="st62 st63">3 BAJAN NIVEL</text>
<text transform="matrix(1 0 0 1 357.3333 472.9567)" class="st62 st63">3 MEDIO BAJO</text>
<text transform="matrix(1 0 0 1 869.3191 422.9749)" class="st62 st63">3 MEDIO BAJO</text>
<text transform="matrix(1 0 0 1 357.3333 583.1755)" class="st62 st63">4 BAJO</text>
<text transform="matrix(1 0 0 1 907.9884 550.6194)" class="st62 st63">4 BAJO</text>
<text transform="matrix(1 0 0 1 59 52.9521)" class="st62 st63">Buin</text>
<text transform="matrix(1 0 0 1 59 64.3272)" class="st62 st63">Cerrillos</text>
<text transform="matrix(1 0 0 1 59 76.996)" class="st62 st63">Cerro Navia</text>
<text transform="matrix(1 0 0 1 59 92.0136)" class="st62 st63">Colina</text>
<text transform="matrix(1 0 0 1 59 106.8276)" class="st62 st63">Conchalí</text>
<text transform="matrix(1 0 0 1 59 122.2271)" class="st62 st63">El bosque</text>
<text transform="matrix(1 0 0 1 59 138.3483)" class="st62 st63">Estación Central</text>
<text transform="matrix(1 0 0 1 59 152.176)" class="st62 st63">Huechuraba</text>
<text transform="matrix(1 0 0 1 59 164.3239)" class="st62 st63">Independencia</text>
<text transform="matrix(1 0 0 1 59 176.1644)" class="st62 st63">La Cisterna</text>
<text transform="matrix(1 0 0 1 59 197.5844)" class="st62 st63">La Florida</text>
<text transform="matrix(1 0 0 1 59 219.9548)" class="st62 st63">La Granja</text>
<text transform="matrix(1 0 0 1 59 235.514)" class="st62 st63">La Pintana</text>
<text transform="matrix(1 0 0 1 59 250.2188)" class="st62 st63">La Reina</text>
<text transform="matrix(1 0 0 1 59 262.2182)" class="st62 st63">Lampa</text>
<text transform="matrix(1 0 0 1 59 281.4767)" class="st62 st63">Las Condes</text>
<text transform="matrix(1 0 0 1 59 300.8718)" class="st62 st63">Lo Barnechea</text>
<text transform="matrix(1 0 0 1 59 313.2238)" class="st62 st63">Lo Espejo</text>
<text transform="matrix(1 0 0 1 59 325.2316)" class="st62 st63">Lo Prado</text>
<text transform="matrix(1 0 0 1 59 337.8763)" class="st62 st63">Macul</text>
<text transform="matrix(1 0 0 1 59 365.8036)" class="st62 st63">Maipú</text>
<text transform="matrix(1 0 0 1 59 393.9859)" class="st62 st63">Melipilla</text>
<text transform="matrix(1 0 0 1 59 405.6999)" class="st62 st63">Padre Hurtado</text>
<text transform="matrix(1 0 0 1 59 415.5863)" class="st62 st63">Paine</text>
<text transform="matrix(1 0 0 1 59 426.8353)" class="st62 st63">Pedro Aguirre Cerda</text>
<text transform="matrix(1 0 0 1 59 438.7108)" class="st62 st63">Peñaflor</text>
<text transform="matrix(1 0 0 1 59 455.6315)" class="st62 st63">Peñalolen</text>
<text transform="matrix(1 0 0 1 59 474.416)" class="st62 st63">Providencia</text>
<text transform="matrix(1 0 0 1 59 492.7943)" class="st62 st63">Pudahuel</text>
<text transform="matrix(1 0 0 1 59 526.4786)" class="st62 st63">Puente Alto</text>
<text transform="matrix(1 0 0 1 59 559.4486)" class="st62 st63">Quilicura</text>
<text transform="matrix(1 0 0 1 59 575.9611)" class="st62 st63">Quinta Normal</text>
<text transform="matrix(1 0 0 1 59 590.5851)" class="st62 st63">Recoleta</text>
<text transform="matrix(1 0 0 1 59 606.543)" class="st62 st63">Renca</text>
<text transform="matrix(1 0 0 1 59 627.6552)" class="st62 st63">San Bernardo</text>
<text transform="matrix(1 0 0 1 59 646.8753)" class="st62 st63">San Joaquín</text>
<text transform="matrix(1 0 0 1 59 659.1487)" class="st62 st63">San Miguel</text>
<text transform="matrix(1 0 0 1 59 671.0056)" class="st62 st63">San Ramón</text>
<text transform="matrix(1 0 0 1 59 693.5163)" class="st62 st63">Santiago</text>
<text transform="matrix(1 0 0 1 59 715.7159)" class="st62 st63">Talagante</text>
<text transform="matrix(1 0 0 1 59 726.4506)" class="st62 st63">Vitacura</text>
<text transform="matrix(1 0 0 1 59 741.9996)" class="st62 st63">Ñuñoa</text>
<g>
	<text transform="matrix(1 0 0 1 318.5892 137.9982)" class="st64 st62 st65">NIVEL 2011</text>
	<text transform="matrix(1 0 0 1 914.9248 137.9982)" class="st64 st62 st65">NIVEL 2020</text>
	<text transform="matrix(1 0 0 1 631.4977 140.4982)" class="st64 st62 st65">NIVEL</text>
	<text transform="matrix(1 0 0 1 25.5029 42.9982)" class="st64 st62 st65">COMUNA</text>
</g>
</svg>
